<svg width="256px" height="256px" viewBox="0 0 24 24" fill="none" xmlns="http://www.w3.org/2000/svg"><g id="SVGRepo_bgCarrier" stroke-width="0"></g><g id="SVGRepo_tracerCarrier" stroke-linecap="round" stroke-linejoin="round"></g><g id="SVGRepo_iconCarrier"> <path d="M19.9992 20.9999H11.9992V7.99991M11.9992 7.99991C13.1038 7.99991 13.9992 7.10448 13.9992 5.99991C13.9992 5.75961 13.9568 5.5292 13.8792 5.31576M11.9992 7.99991C10.8947 7.99991 9.99923 7.10448 9.99923 5.99991C9.99923 4.89534 10.8947 3.99991 11.9992 3.99991C12.8635 3.99991 13.5997 4.54811 13.8792 5.31576M10.1203 6.68387L4.48214 8.73599M19.5172 3.26367L13.8792 5.31576M5.99923 20.9999C7.51177 20.9999 8.76287 20.1583 8.96934 18.7512C8.98242 18.662 8.98897 18.6174 8.98385 18.5185C8.98031 18.4502 8.95717 18.3255 8.93599 18.2604C8.90531 18.1663 8.86812 18.1002 8.79375 17.9679L5.99923 12.9999L3.2047 17.9679C3.13575 18.0905 3.10128 18.1518 3.06939 18.2583C3.04977 18.3238 3.02706 18.481 3.02735 18.5494C3.02781 18.6605 3.03453 18.6898 3.04799 18.7485C3.30295 19.8599 4.5273 20.9999 5.99923 20.9999ZM17.9992 16.9999C19.5118 16.9999 20.7629 16.1583 20.9693 14.7512C20.9824 14.662 20.989 14.6174 20.9838 14.5185C20.9803 14.4502 20.9572 14.3255 20.936 14.2604C20.9053 14.1663 20.8681 14.1002 20.7937 13.9679L17.9992 8.99991L15.2047 13.9679C15.1358 14.0905 15.1013 14.1518 15.0694 14.2583C15.0498 14.3238 15.0271 14.481 15.0273 14.5494C15.0278 14.6605 15.0345 14.6898 15.048 14.7485C15.303 15.8599 16.5273 16.9999 17.9992 16.9999Z" stroke="#FA7398" stroke-width="2" stroke-linecap="round" stroke-linejoin="round"></path> </g></svg>