<svg fill="#FA7398" viewBox="0 0 1069 1069" style="fill-rule:evenodd;clip-rule:evenodd;stroke-linejoin:round;stroke-miterlimit:2;" version="1.1" xml:space="preserve" xmlns="http://www.w3.org/2000/svg" xmlns:serif="http://www.serif.com/" xmlns:xlink="http://www.w3.org/1999/xlink"><g id="SVGRepo_bgCarrier" stroke-width="0"></g><g id="SVGRepo_tracerCarrier" stroke-linecap="round" stroke-linejoin="round"></g><g id="SVGRepo_iconCarrier"><rect height="1066.67" id="Lcd" style="fill:none;" width="1066.67" x="1.447" y="1.589"></rect><path d="M268.113,1012.7l533.334,0c18.397,0 33.333,-14.936 33.333,-33.333c0,-18.397 -14.936,-33.333 -33.333,-33.333l-533.334,-0c-18.397,-0 -33.333,14.936 -33.333,33.333c0,18.397 14.936,33.333 33.333,33.333Zm553.842,-266.71c17.649,0.291 35.047,-6.134 35.047,-33.544c0,-1.515 0,-9.703 0,-21.968c0,-116.593 -94.517,-211.111 -211.11,-211.111c-25.824,0 -45.023,0 -48.604,0c-16.805,0 -33.217,13.535 -33.936,33.333c-0.303,18.395 14.936,33.334 33.333,33.334l49.204,-0c79.778,0.001 144.447,64.671 144.447,144.444c-0,12.265 -0,21.968 -0,21.968l0.006,0.007l-0.006,0.247c-0,17.822 16.109,33.035 31.619,33.29Z" style="fill-opacity:0.5;"></path><path d="M1012.56,312.7c-0,-116.593 -94.518,-211.111 -211.111,-211.111c-154.917,0 -378.417,0 -533.334,0c-116.593,0 -211.11,94.518 -211.111,211.111c0,108.59 0,246.967 0,355.556c0.001,116.594 94.518,211.111 211.111,211.111c154.917,0 378.417,0 533.334,0c116.593,0 211.111,-94.517 211.111,-211.11l-0,-355.557Zm-66.667,-0.002l0,355.558c-0.001,79.776 -64.671,144.445 -144.444,144.444c-154.917,0 -378.417,0 -533.334,0c-79.773,0.001 -144.443,-64.668 -144.444,-144.442c-0,-0.003 -0,-355.558 -0,-355.558c0.001,-79.775 64.671,-144.444 144.444,-144.444c154.917,0 378.417,0 533.334,0c79.773,0 144.443,64.669 144.444,144.442Zm-684.179,200.002c-2.833,2.413 -5.578,4.945 -8.227,7.594c-26.206,26.206 -40.927,61.747 -40.927,98.807c-0,0.007 -0,0.013 -0,0.019c-0,37.06 14.721,72.602 40.927,98.807c26.205,26.205 61.746,40.927 98.806,40.927c4.723,0 9.462,0 14.184,0c37.06,0 72.602,-14.722 98.807,-40.927c26.205,-26.205 40.927,-61.747 40.927,-98.807l-0,-0.019c-0,-37.06 -14.722,-72.601 -40.927,-98.807c-2.649,-2.649 -5.394,-5.181 -8.228,-7.594c2.834,-2.412 5.579,-4.944 8.228,-7.593c26.205,-26.206 40.927,-61.747 40.927,-98.807l-0,-0.019c-0,-37.06 -14.722,-72.602 -40.927,-98.807c-26.205,-26.205 -61.747,-40.927 -98.807,-40.927c-4.722,-0 -9.461,-0 -14.184,-0c-37.06,-0 -72.601,14.722 -98.806,40.927c-26.206,26.205 -40.927,61.747 -40.927,98.807c-0,0.006 -0,0.012 -0,0.019c-0,37.06 14.721,72.601 40.927,98.807c2.649,2.649 5.394,5.181 8.227,7.593Zm90.579,33.334l14.184,-0c19.379,-0 37.964,7.698 51.666,21.401c13.703,13.702 21.401,32.287 21.401,51.666l-0,0.02c0,19.378 -7.698,37.963 -21.401,51.666c-13.702,13.703 -32.287,21.401 -51.666,21.401c-4.722,-0 -9.461,-0 -14.184,-0c-19.378,-0 -37.963,-7.698 -51.666,-21.401c-13.703,-13.703 -21.401,-32.288 -21.4,-51.666l-0,-0.02c-0.001,-19.379 7.697,-37.964 21.4,-51.666c13.703,-13.703 32.288,-21.401 51.666,-21.401Zm14.184,-66.667l-14.184,0c-19.378,0 -37.963,-7.698 -51.666,-21.401c-13.703,-13.702 -21.401,-32.287 -21.4,-51.666l-0,-0.02c-0.001,-19.378 7.697,-37.963 21.4,-51.666c13.703,-13.703 32.288,-21.401 51.666,-21.401c4.723,0 9.462,0 14.184,0c19.379,0 37.964,7.698 51.666,21.401c13.703,13.703 21.401,32.288 21.401,51.666l-0,0.02c0,19.379 -7.698,37.964 -21.401,51.666c-13.702,13.703 -32.287,21.401 -51.666,21.401Zm310.805,-192.778c19.47,-0 35.278,15.807 35.278,35.278c-0,19.47 -15.808,35.278 -35.278,35.278c-19.471,-0 -35.279,-15.808 -35.279,-35.278c0,-19.471 15.808,-35.278 35.279,-35.278Z"></path></g></svg>