<svg height="512px" style="enable-background:new 0 0 512 512;" version="1.1" viewBox="0 0 512 512" width="512px" xml:space="preserve" xmlns="http://www.w3.org/2000/svg" xmlns:xlink="http://www.w3.org/1999/xlink"><g id="_x33_39-trello"><g><path d="M428.88,26.001H83.678c-31.83,0-57.602,25.773-57.602,57.5c-0.104,0,0-4.107,0,344.998    c0,31.728,25.772,57.5,57.499,57.5h345.205c31.624-0.206,57.19-25.874,57.19-57.5V83.501    C486.071,51.876,460.505,26.207,428.88,26.001L428.88,26.001z" style="fill:#007BC2;"/><path d="M228.351,374.386c-0.205,15.095-12.423,27.315-27.62,27.315h-84.915    c-15.197,0.102-27.62-12.116-27.723-27.315V113.381c0-15.197,12.32-27.621,27.62-27.621h85.12    c15.196,0,27.621,12.322,27.621,27.621v261.005H228.351z" style="fill:#FFFFFF;"/><path d="M426.622,259.389c0,15.197-12.322,27.62-27.622,27.62h-83.169    c-15.195,0-27.619-12.319-27.619-27.62V113.482c0-15.196,12.32-27.62,27.517-27.62H399c15.197,0,27.622,12.321,27.622,27.62    V259.389z" style="fill:#FFFFFF;"/></g></g><g id="Layer_1"/></svg>