<?xml version="1.0" encoding="UTF-8"?>
<svg version="1.1" xmlns="http://www.w3.org/2000/svg" width="500" height="500">
<path d="M0 0 C1.87834282 -0.00855011 1.87834282 -0.00855011 3.79463196 -0.01727295 C6.44653945 -0.02670452 9.09833441 -0.03360937 11.75024414 -0.03710938 C15.74186497 -0.0435963 19.7331094 -0.07774154 23.72460938 -0.109375 C42.21433315 -0.1870429 59.7363958 1.0364322 77.61328125 5.953125 C78.56920166 6.21134033 79.52512207 6.46955566 80.51000977 6.7355957 C105.15891673 13.54478743 128.45090909 23.58709697 150.11328125 37.203125 C151.34489622 37.96119079 152.57666424 38.71900798 153.80859375 39.4765625 C159.887744 43.25745714 165.76112194 47.28196925 171.48828125 51.578125 C172.05450195 51.99513672 172.62072266 52.41214844 173.20410156 52.84179688 C174.76171875 54.0390625 174.76171875 54.0390625 177.11328125 56.203125 C177.11328125 57.193125 177.11328125 58.183125 177.11328125 59.203125 C175.19921875 61.04296875 175.19921875 61.04296875 172.48828125 63.140625 C167.92433723 66.7425037 163.49465902 70.44440416 159.11328125 74.265625 C154.23585496 78.49198018 149.22883062 82.35300846 143.95703125 86.08203125 C139.27892654 89.57133188 134.92739863 93.43260602 130.5234375 97.2578125 C126.71903005 100.55999145 122.81883547 103.73732106 118.90625 106.91015625 C116.26901124 109.07527394 113.66785817 111.27605667 111.07446289 113.49316406 C108.43408929 115.74590113 105.7744191 117.97495005 103.11328125 120.203125 C102.38625 120.82316406 101.65921875 121.44320312 100.91015625 122.08203125 C99.11328125 123.515625 99.11328125 123.515625 96.11328125 125.203125 C92.54185315 124.16248474 89.43296403 122.31195943 86.20532227 120.48730469 C54.20890945 102.52351348 14.71962164 98.35993645 -20.61083984 107.84570312 C-58.46234717 118.8551198 -90.99114384 142.05627497 -110.51171875 176.703125 C-129.55455268 211.68492416 -135.57497152 251.84983754 -124.421875 290.34765625 C-113.29866907 326.52919708 -90.86297708 358.33445598 -57.63671875 377.328125 C-20.16101717 396.75385578 20.73192164 403.36952928 61.72265625 390.71875 C72.36957413 387.18255495 82.6924445 382.45943751 92.15625 376.4296875 C94.11328125 375.203125 94.11328125 375.203125 97.17578125 373.765625 C105.4175332 369.38171439 112.34012703 362.53795491 119.11328125 356.203125 C120.35271484 355.04490234 120.35271484 355.04490234 121.6171875 353.86328125 C136.40418363 339.58538358 145.82444424 322.85300826 154.11328125 304.203125 C110.22328125 303.873125 66.33328125 303.543125 21.11328125 303.203125 C21.11328125 270.203125 21.11328125 237.203125 21.11328125 203.203125 C101.30328125 203.203125 181.49328125 203.203125 264.11328125 203.203125 C267.57575614 223.97797436 267.57575614 223.97797436 267.546875 234.8046875 C267.55211685 236.00966888 267.5573587 237.21465027 267.5627594 238.45614624 C267.56911211 240.97840616 267.56793177 243.50069598 267.55932617 246.02294922 C267.55084213 249.80101563 267.57963666 253.5775515 267.61132812 257.35546875 C267.75709127 307.64601267 250.50888383 354.09843055 222.11328125 395.203125 C221.19439255 396.56578635 220.27632862 397.92900451 219.359375 399.29296875 C213.67066957 407.6362541 207.15036375 414.98796624 200.11328125 422.203125 C199.51290039 422.82396973 198.91251953 423.44481445 198.29394531 424.08447266 C191.46777077 431.12385503 184.62442608 437.97282597 176.8840332 444.01269531 C174.21995261 446.1187955 171.63518303 448.29869988 169.04296875 450.4921875 C163.34002414 455.16266949 157.34311014 458.98764396 150.98828125 462.703125 C149.34206787 463.67403076 149.34206787 463.67403076 147.66259766 464.66455078 C144.48792711 466.52578924 141.30347977 468.36865632 138.11328125 470.203125 C137.31019531 470.6681543 136.50710938 471.13318359 135.6796875 471.61230469 C110.84567231 485.85930526 82.37001718 494.97620096 54.11328125 499.203125 C52.96472656 499.3781958 51.81617188 499.5532666 50.6328125 499.73364258 C44.85125486 500.43911642 39.05152311 500.40490086 33.234375 500.44140625 C31.99067642 500.449478 30.74697784 500.45754974 29.46559143 500.46586609 C26.83229953 500.47966427 24.19899007 500.49040539 21.56567383 500.49829102 C18.915501 500.50705737 16.26660613 500.53004856 13.61645508 500.55981445 C-32.74153617 501.07932115 -76.60647413 487.91273282 -115.88671875 463.203125 C-116.955271 462.54594482 -116.955271 462.54594482 -118.04541016 461.87548828 C-128.05457343 455.71924323 -137.17630254 449.08620284 -145.88671875 441.203125 C-146.40121582 440.74357422 -146.91571289 440.28402344 -147.44580078 439.81054688 C-186.0623799 405.26582478 -214.33523842 361.55414679 -227.19921875 311.015625 C-227.42955811 310.11561768 -227.65989746 309.21561035 -227.8972168 308.28833008 C-228.62642512 305.27061183 -229.26914521 302.24572323 -229.88671875 299.203125 C-230.01875702 298.57866486 -230.15079529 297.95420471 -230.28683472 297.31082153 C-233.21420045 283.08519619 -233.3805273 268.93656423 -233.33276367 254.45336914 C-233.32427021 250.53933752 -233.35309311 246.62677864 -233.38476562 242.71289062 C-233.44160769 222.57658842 -231.44016596 203.14777878 -225.76171875 183.765625 C-225.32230957 182.24050293 -225.32230957 182.24050293 -224.87402344 180.68457031 C-212.47310035 139.0884771 -189.82768806 102.18700331 -159.32421875 71.515625 C-158.61579834 70.80245117 -157.90737793 70.08927734 -157.17749023 69.35449219 C-145.62343819 57.8365842 -133.09957438 47.26819117 -118.88671875 39.203125 C-117.16143213 38.15146427 -115.43630471 37.09953349 -113.71386719 36.04321289 C-84.7901236 18.40122407 -53.4820715 6.34842319 -19.88671875 1.203125 C-18.90751465 1.0280542 -17.92831055 0.8529834 -16.91943359 0.67260742 C-11.31455169 -0.11556233 -5.64852591 0.02014424 0 0 Z " fill="#518EF7" transform="translate(232.88671875,-0.203125)"/>
<path d="M0 0 C1.87834282 -0.00855011 1.87834282 -0.00855011 3.79463196 -0.01727295 C6.44653945 -0.02670452 9.09833441 -0.03360937 11.75024414 -0.03710938 C15.74186497 -0.0435963 19.7331094 -0.07774154 23.72460938 -0.109375 C42.21433315 -0.1870429 59.7363958 1.0364322 77.61328125 5.953125 C78.56920166 6.21134033 79.52512207 6.46955566 80.51000977 6.7355957 C105.15891673 13.54478743 128.45090909 23.58709697 150.11328125 37.203125 C151.34489622 37.96119079 152.57666424 38.71900798 153.80859375 39.4765625 C159.887744 43.25745714 165.76112194 47.28196925 171.48828125 51.578125 C172.05450195 51.99513672 172.62072266 52.41214844 173.20410156 52.84179688 C174.76171875 54.0390625 174.76171875 54.0390625 177.11328125 56.203125 C177.11328125 57.193125 177.11328125 58.183125 177.11328125 59.203125 C175.19921875 61.04296875 175.19921875 61.04296875 172.48828125 63.140625 C167.92433723 66.7425037 163.49465902 70.44440416 159.11328125 74.265625 C154.23585496 78.49198018 149.22883062 82.35300846 143.95703125 86.08203125 C139.27892654 89.57133188 134.92739863 93.43260602 130.5234375 97.2578125 C126.71903005 100.55999145 122.81883547 103.73732106 118.90625 106.91015625 C116.26901124 109.07527394 113.66785817 111.27605667 111.07446289 113.49316406 C108.43408929 115.74590113 105.7744191 117.97495005 103.11328125 120.203125 C102.38625 120.82316406 101.65921875 121.44320312 100.91015625 122.08203125 C99.11328125 123.515625 99.11328125 123.515625 96.11328125 125.203125 C92.54185315 124.16248474 89.43296403 122.31195943 86.20532227 120.48730469 C54.20890945 102.52351348 14.71962164 98.35993645 -20.61083984 107.84570312 C-58.46234717 118.8551198 -90.99114384 142.05627497 -110.51171875 176.703125 C-128.92336657 210.52543153 -135.28690229 249.19366505 -125.29370117 286.62792969 C-122.34386293 297.80417712 -122.34386293 297.80417712 -122.88671875 303.203125 C-124.1953125 304.99609375 -124.1953125 304.99609375 -125.88671875 306.203125 C-126.87671875 306.203125 -127.86671875 306.203125 -128.88671875 306.203125 C-128.88671875 306.863125 -128.88671875 307.523125 -128.88671875 308.203125 C-133.27133413 311.203125 -133.27133413 311.203125 -135.88671875 311.203125 C-136.12261719 311.78578125 -136.35851562 312.3684375 -136.6015625 312.96875 C-138.17452199 315.70350024 -139.93785877 317.05093685 -142.44921875 318.953125 C-147.45926305 322.83861259 -152.17995602 326.95932254 -156.88671875 331.203125 C-173.66693853 346.203125 -173.66693853 346.203125 -176.88671875 346.203125 C-177.17546875 346.821875 -177.46421875 347.440625 -177.76171875 348.078125 C-179.50530675 351.371569 -180.74066627 352.14632681 -184.26171875 353.515625 C-188.12305518 355.31314368 -189.39993207 356.85882567 -191.88671875 360.203125 C-193.21139621 360.8868295 -194.54535508 361.55276686 -195.88671875 362.203125 C-199.5122363 365.32275638 -201.47115458 367.35487632 -201.88671875 372.203125 C-215.03331074 355.5420504 -222.01713581 331.31769654 -227.19921875 311.015625 C-227.42971924 310.11529541 -227.66021973 309.21496582 -227.89770508 308.28735352 C-228.6265638 305.26993728 -229.26921991 302.2453552 -229.88671875 299.203125 C-230.01875702 298.57866486 -230.15079529 297.95420471 -230.28683472 297.31082153 C-233.21420045 283.08519619 -233.3805273 268.93656423 -233.33276367 254.45336914 C-233.32427021 250.53933752 -233.35309311 246.62677864 -233.38476562 242.71289062 C-233.44160769 222.57658842 -231.44016596 203.14777878 -225.76171875 183.765625 C-225.32230957 182.24050293 -225.32230957 182.24050293 -224.87402344 180.68457031 C-212.47310035 139.0884771 -189.82768806 102.18700331 -159.32421875 71.515625 C-158.61579834 70.80245117 -157.90737793 70.08927734 -157.17749023 69.35449219 C-145.62343819 57.8365842 -133.09957438 47.26819117 -118.88671875 39.203125 C-117.16143213 38.15146427 -115.43630471 37.09953349 -113.71386719 36.04321289 C-84.7901236 18.40122407 -53.4820715 6.34842319 -19.88671875 1.203125 C-18.90751465 1.0280542 -17.92831055 0.8529834 -16.91943359 0.67260742 C-11.31455169 -0.11556233 -5.64852591 0.02014424 0 0 Z " fill="#F04436" transform="translate(232.88671875,-0.203125)"/>
<path d="M0 0 C1.68055524 2.52083286 2.75349078 4.62195707 3.8828125 7.39453125 C20.4780145 47.53445617 47.53434337 75.312561 87.72314453 92.08789062 C121.44502831 105.59689318 161.28309168 105.94984983 194.94140625 92.00390625 C203.0888817 88.49822377 203.0888817 88.49822377 210.8671875 84.26171875 C213 83 213 83 215.3125 82.9375 C220.69283882 85.06461069 225.02249029 88.86473959 228.9375 93.0625 C231.86093649 96.12971205 235.15870023 97.8287492 238.88671875 99.77734375 C241.74901258 101.43334739 243.80542428 103.5472389 246 106 C248.18237049 108.35024514 248.84168378 108.94722793 252 110 C252 110.66 252 111.32 252 112 C252.99 112.33 253.98 112.66 255 113 C255 113.66 255 114.32 255 115 C255.99 115.33 256.98 115.66 258 116 C259.13159763 117.0973068 260.25652942 118.20228599 261.34765625 119.33984375 C267.10600414 125.12541787 273.391323 131.35307597 280.49609375 135.43359375 C283.48339268 137.30240322 285.634296 139.51419935 288.0625 142.0625 C292.03373936 146.23185145 292.03373936 146.23185145 297 149 C296.66746481 151.81713776 296.10889506 152.89372366 294.05078125 154.90234375 C283.88718154 162.45617463 272.99902177 168.74817856 262 175 C261.24525391 175.43376953 260.49050781 175.86753906 259.71289062 176.31445312 C234.76931298 190.55800025 206.36155131 199.75739663 178 204 C176.85144531 204.1750708 175.70289063 204.3501416 174.51953125 204.53051758 C168.73797361 205.23599142 162.93824186 205.20177586 157.12109375 205.23828125 C155.25554588 205.25038887 155.25554588 205.25038887 153.35231018 205.26274109 C150.71901828 205.27653927 148.08570882 205.28728039 145.45239258 205.29516602 C142.80221975 205.30393237 140.15332488 205.32692356 137.50317383 205.35668945 C91.14518258 205.87619615 47.28024462 192.70960782 8 168 C7.28763184 167.56187988 6.57526367 167.12375977 5.84130859 166.67236328 C-4.16785468 160.51611823 -13.28958379 153.88307784 -22 146 C-22.51449707 145.54044922 -23.02899414 145.08089844 -23.55908203 144.60742188 C-44.32772225 126.02869426 -60.37449985 106.73570934 -75 83 C-75.54277588 82.13310547 -76.08555176 81.26621094 -76.64477539 80.37304688 C-78.06771156 77.88143464 -78.59656301 75.8240589 -79 73 C-78.236875 72.4225 -77.47375 71.845 -76.6875 71.25 C-74.00011502 69.1773894 -74.00011502 69.1773894 -72.375 66.8125 C-71 65 -71 65 -68 64 C-67.443125 63.236875 -66.88625 62.47375 -66.3125 61.6875 C-63.74977518 58.70919818 -61.65996972 57.6605839 -58.09765625 56.1875 C-55.23837974 54.56884067 -53.28701412 52.34938723 -51 50 C-49.24866748 48.51830462 -47.4773215 47.05996543 -45.6875 45.625 C-41.56552272 42.29849202 -37.56329733 38.88844162 -33.65625 35.3125 C-32 34 -32 34 -29 33 C-28.67 32.01 -28.34 31.02 -28 30 C-25.890625 28.09765625 -25.890625 28.09765625 -23.25 26.0625 C-21.95835938 25.05896484 -21.95835938 25.05896484 -20.640625 24.03515625 C-19.76921875 23.36355469 -18.8978125 22.69195312 -18 22 C-15.47309573 20.01797089 -13.14075611 18.14928678 -10.9375 15.8125 C-8.90245717 13.90875025 -7.71851591 13.38835942 -5 13 C-5 12.34 -5 11.68 -5 11 C-3.7625 10.443125 -3.7625 10.443125 -2.5 9.875 C0.18027158 8.3135683 0.18027158 8.3135683 0.33203125 6.02734375 C0.31428802 4.01526125 0.16437993 2.00543513 0 0 Z " fill="#28B447" transform="translate(109,295)"/>
<path d="M0 0 C0.20753906 0.55300781 0.41507813 1.10601562 0.62890625 1.67578125 C2.50044064 4.84832531 5.11853595 6.8934465 7.9375 9.1875 C8.81148437 9.91259766 8.81148437 9.91259766 9.703125 10.65234375 C11.46271872 12.109088 13.22998402 13.55594636 15 15 C16.40958984 16.15435547 16.40958984 16.15435547 17.84765625 17.33203125 C19.62971984 18.78865171 21.41360424 20.24304715 23.19921875 21.6953125 C26.26775994 24.22033245 29.29033154 26.79492333 32.3125 29.375 C37.36228051 33.67933672 42.52996034 37.80347505 47.76879883 41.87451172 C52.30929247 45.41809687 56.70600291 49.1060093 61.07910156 52.85302734 C66.36083039 57.35593595 71.81772793 61.62404951 77.296875 65.8828125 C80 68 80 68 81 69 C81.2996758 74.17266492 80.52734267 78.41050223 79.125 83.375 C72.96422425 106.58656473 73.41346648 131.27637123 79.59301758 154.42480469 C82.54285582 165.60105212 82.54285582 165.60105212 82 171 C80.69140625 172.79296875 80.69140625 172.79296875 79 174 C78.01 174 77.02 174 76 174 C76 174.66 76 175.32 76 176 C71.61538462 179 71.61538462 179 69 179 C68.76410156 179.58265625 68.52820313 180.1653125 68.28515625 180.765625 C66.71219676 183.50037524 64.94885998 184.84781185 62.4375 186.75 C57.4274557 190.63548759 52.70676273 194.75619754 48 199 C31.21978022 214 31.21978022 214 28 214 C27.71125 214.61875 27.4225 215.2375 27.125 215.875 C25.381412 219.168444 24.14605248 219.94320181 20.625 221.3125 C16.76366357 223.11001868 15.48678668 224.65570067 13 228 C11.67532254 228.6837045 10.34136367 229.34964186 9 230 C5.37448245 233.11963138 3.41556417 235.15175132 3 240 C-10.14659199 223.3389254 -17.13041706 199.11457154 -22.3125 178.8125 C-22.54300049 177.91217041 -22.77350098 177.01184082 -23.01098633 176.08422852 C-23.73984505 173.06681228 -24.38250116 170.0422302 -25 167 C-25.13203827 166.37553986 -25.26407654 165.75107971 -25.40011597 165.10769653 C-28.3274817 150.88207119 -28.49380855 136.73343923 -28.44604492 122.25024414 C-28.43755146 118.33621252 -28.46637436 114.42365364 -28.49804688 110.50976562 C-28.55489306 90.37200428 -26.55057897 70.94648938 -20.875 51.5625 C-20.58496094 50.55082764 -20.29492188 49.53915527 -19.99609375 48.49682617 C-15.0185401 31.74276268 -8.30956732 15.38095408 0 0 Z " fill="#FABB02" transform="translate(28,132)"/>
<path d="M0 0 C15.84 0 31.68 0 48 0 C48 0.66 48 1.32 48 2 C33.15 2 18.3 2 3 2 C3 33.68 3 65.36 3 98 C46.23 98 89.46 98 134 98 C134.99 101.465 134.99 101.465 136 105 C133.525 105.99 133.525 105.99 131 107 C131.66 105.02 132.32 103.04 133 101 C67.165 100.505 67.165 100.505 0 100 C0 67 0 34 0 0 Z " fill="#5F8EE0" transform="translate(254,203)"/>
<path d="M0 0 C0.33 0 0.66 0 1 0 C1 32.67 1 65.34 1 99 C45.22 99 89.44 99 135 99 C135.33 100.98 135.66 102.96 136 105 C133.525 105.99 133.525 105.99 131 107 C131.66 105.02 132.32 103.04 133 101 C67.165 100.505 67.165 100.505 0 100 C0 67 0 34 0 0 Z " fill="#ACD0ED" transform="translate(254,203)"/>
<path d="M0 0 C37.29 0 74.58 0 113 0 C115 10 115 10 115 15 C112.7522025 12.94766315 111.9977758 11.99332739 111 9 C110.96045766 6.66700175 110.95598268 4.33291811 111 2 C110.37828918 2.00261841 109.75657837 2.00523682 109.11602783 2.00793457 C86.94155132 2.08653748 64.77399942 1.82151461 42.60174561 1.53643799 C37.780086 1.47482956 32.95840133 1.41524777 28.13671875 1.35546875 C18.75778768 1.23890381 9.37888533 1.12018514 0 1 C0 0.67 0 0.34 0 0 Z " fill="#5B92F3" transform="translate(384,203)"/>
<path d="M0 0 C0.33 0 0.66 0 1 0 C2.10228696 4.40914783 2.07654536 8.48382401 2 13 C2.66 13 3.32 13 4 13 C4.12117187 14.22976563 4.24234375 15.45953125 4.3671875 16.7265625 C4.53610295 18.3594118 4.70539364 19.99222232 4.875 21.625 C4.95363281 22.43324219 5.03226562 23.24148438 5.11328125 24.07421875 C5.5968264 28.64929977 6.4081925 32.65262657 8 37 C8 37.66 8 38.32 8 39 C8.66 39 9.32 39 10 39 C10.66 44.28 11.32 49.56 12 55 C12.66 55 13.32 55 14 55 C14.33 57.97 14.66 60.94 15 64 C4.00089956 47.50134934 0.14950715 20.54162158 -1 1 C-0.67 0.67 -0.34 0.34 0 0 Z " fill="#F1CE5C" transform="translate(1,276)"/>
<path d="M0 0 C2.23915618 3.35873427 3.69032729 6.8389434 5.1875 10.5625 C5.47302734 11.24763672 5.75855469 11.93277344 6.05273438 12.63867188 C6.76394161 14.4019813 7.38874045 16.19960071 8 18 C7.67 18.66 7.34 19.32 7 20 C6.34 20 5.68 20 5 20 C4.34 18.02 3.68 16.04 3 14 C0.69 14 -1.62 14 -4 14 C-4.33 14.99 -4.66 15.98 -5 17 C-6.98 17 -8.96 17 -11 17 C-11.2475 17.598125 -11.495 18.19625 -11.75 18.8125 C-13.16370012 21.28647521 -14.65055383 22.43370255 -17 24 C-17.66 23.67 -18.32 23.34 -19 23 C-18.0925 22.2575 -17.185 21.515 -16.25 20.75 C-14.31357504 19.14994933 -12.60678867 17.58365859 -10.875 15.75 C-8.8793959 13.88743617 -7.66732705 13.38104672 -5 13 C-5 12.34 -5 11.68 -5 11 C-4.175 10.62875 -3.35 10.2575 -2.5 9.875 C0.18027158 8.3135683 0.18027158 8.3135683 0.33203125 6.02734375 C0.31428802 4.01526125 0.16437993 2.00543513 0 0 Z " fill="#65B22E" transform="translate(109,295)"/>
<path d="M0 0 C1.35123992 3.37809981 0.62661638 5.57696534 -0.46484375 8.9453125 C-1.08099752 11.31098319 -1.26341694 13.56283722 -1.4375 16 C-1.7149796 19.35498057 -2.1220557 21.27971099 -3.5 24.4375 C-5.26212647 28.62255036 -5.53172814 32.24496317 -5.7890625 36.7421875 C-6 39 -6 39 -7 40 C-7.39569108 42.01311449 -7.74252191 44.03597208 -8.0625 46.0625 C-8.23910156 47.16722656 -8.41570313 48.27195313 -8.59765625 49.41015625 C-8.73042969 50.26480469 -8.86320313 51.11945313 -9 52 C-9.66 51.67 -10.32 51.34 -11 51 C-8.94700804 33.71164666 -5.82188759 16.4628496 0 0 Z " fill="#F3CD55" transform="translate(11,171)"/>
<path d="M0 0 C0.66 0.33 1.32 0.66 2 1 C1.67128906 1.55042969 1.34257813 2.10085937 1.00390625 2.66796875 C-3.26872927 10.13639669 -6.62004082 17.88995281 -9.92749023 25.82495117 C-10.29688721 26.70771729 -10.66628418 27.5904834 -11.046875 28.5 C-11.37526367 29.2940625 -11.70365234 30.088125 -12.04199219 30.90625 C-13 33 -13 33 -15 36 C-14.44687265 31.97007218 -13.8441938 27.97977076 -13 24 C-12.34 24 -11.68 24 -11 24 C-11.33 21.69 -11.66 19.38 -12 17 C-11.01 17 -10.02 17 -9 17 C-9.144375 16.443125 -9.28875 15.88625 -9.4375 15.3125 C-10.02769128 12.88615805 -10.523429 10.45093655 -11 8 C-9.02 8 -7.04 8 -5 8 C-4.34 6.35 -3.68 4.7 -3 3 C-2.34 3 -1.68 3 -1 3 C-0.67 2.01 -0.34 1.02 0 0 Z " fill="#EF4439" transform="translate(124,169)"/>
<path d="M0 0 C0.60328125 0.08378906 1.2065625 0.16757812 1.828125 0.25390625 C3.02695313 0.40666016 3.02695313 0.40666016 4.25 0.5625 C5.03890625 0.66691406 5.8278125 0.77132813 6.640625 0.87890625 C9.00532874 1.00027349 10.7511037 0.69633257 13 0 C12.67 0.66 12.34 1.32 12 2 C11.34 2 10.68 2 10 2 C9.67 3.32 9.34 4.64 9 6 C9.515625 6.12375 10.03125 6.2475 10.5625 6.375 C11.7690625 6.684375 11.7690625 6.684375 13 7 C14.19625 7.268125 15.3925 7.53625 16.625 7.8125 C20 9 20 9 20.9375 10.94140625 C22.32386981 13.62749775 23.6014069 14.02846319 26.375 15.125 C34.70307255 18.49522334 34.70307255 18.49522334 36.25 21.125 C36.4975 21.74375 36.745 22.3625 37 23 C26.92210515 19.24878358 17.70463472 12.909055 8.6875 7.125 C7.94016602 6.64877197 7.19283203 6.17254395 6.42285156 5.68188477 C5.73030273 5.23256592 5.03775391 4.78324707 4.32421875 4.3203125 C3.70635498 3.92086426 3.08849121 3.52141602 2.4519043 3.10986328 C1 2 1 2 0 0 Z " fill="#41AD5D" transform="translate(99,450)"/>
<path d="M0 0 C27.06 0 54.12 0 82 0 C82 0.33 82 0.66 82 1 C81.13857895 1.01030746 80.2771579 1.02061493 79.38963318 1.03123474 C71.25372189 1.12939505 63.11787995 1.23193506 54.98208523 1.33933926 C50.79984995 1.39439777 46.61760749 1.44778945 42.43530273 1.49731445 C38.39577039 1.5452111 34.35631762 1.59756114 30.31688118 1.65294075 C28.77921607 1.67325026 27.24152923 1.6919813 25.703825 1.70907402 C23.54262359 1.73337262 21.38156901 1.76338936 19.22045898 1.79467773 C17.99246078 1.81022202 16.76446259 1.8257663 15.49925232 1.84178162 C11.94272348 1.94114629 11.94272348 1.94114629 8.23231506 2.57142639 C4.73724151 3.03483923 3.09125174 2.59246302 0 1 C0 0.67 0 0.34 0 0 Z " fill="#5C93F1" transform="translate(302,203)"/>
<path d="M0 0 C0.66 0.66 1.32 1.32 2 2 C1.63488452 8.73804024 0.14255604 15.05272023 -1.5625 21.5625 C-1.79646484 22.47580078 -2.03042969 23.38910156 -2.27148438 24.33007812 C-2.84223625 26.55484564 -3.41847478 28.77802897 -4 31 C-4.33 31 -4.66 31 -5 31 C-5.08149592 27.97861433 -5.14073421 24.95946095 -5.1875 21.9375 C-5.21263672 21.08994141 -5.23777344 20.24238281 -5.26367188 19.36914062 C-5.32846972 13.7749264 -4.57466587 9.98039041 -2 5 C-1.34 5 -0.68 5 0 5 C0 3.35 0 1.7 0 0 Z " fill="#71A5F0" transform="translate(495,292)"/>
<path d="M0 0 C8.91 0 17.82 0 27 0 C29 10 29 10 29 15 C26.7522025 12.94766315 25.9977758 11.99332739 25 9 C25 6.69 25 4.38 25 2 C17.08 2 9.16 2 1 2 C0.67 1.34 0.34 0.68 0 0 Z " fill="#6693E1" transform="translate(470,203)"/>
<path d="M0 0 C-0.66 1.98 -1.32 3.96 -2 6 C-3.21236328 6.16435547 -3.21236328 6.16435547 -4.44921875 6.33203125 C-5.51785156 6.49058594 -6.58648437 6.64914062 -7.6875 6.8125 C-8.74324219 6.96332031 -9.79898437 7.11414063 -10.88671875 7.26953125 C-14.01845539 7.82967274 -14.01845539 7.82967274 -16.46875 9.53125 C-19.66541425 11.38610457 -22.14169835 11.50210598 -25.8125 11.6875 C-26.97394531 11.75324219 -28.13539063 11.81898438 -29.33203125 11.88671875 C-30.21246094 11.92410156 -31.09289062 11.96148437 -32 12 C-28.45748984 10.05561472 -24.78195363 8.90802457 -20.9375 7.6875 C-15.11098698 5.80653336 -9.59025807 3.597659 -4.07421875 0.91796875 C-2 0 -2 0 0 0 Z " fill="#4EB769" transform="translate(317,382)"/>
<path d="M0 0 C15.1033712 1.04409479 29.36684799 4.18982472 44 8 C40.390625 10.09375 40.390625 10.09375 36.875 9.25 C36.28203125 9.05019531 35.6890625 8.85039062 35.078125 8.64453125 C31.79198828 7.62533471 28.41979486 7.08277217 25.0390625 6.46484375 C23 6 23 6 22 5 C20.37095732 4.70297986 18.73162369 4.46187054 17.08984375 4.24609375 C15.60581055 4.04790039 15.60581055 4.04790039 14.09179688 3.84570312 C13.05087891 3.71099609 12.00996094 3.57628906 10.9375 3.4375 C9.89271484 3.29892578 8.84792969 3.16035156 7.77148438 3.01757812 C5.18146356 2.67460733 2.59098531 2.33559369 0 2 C0 1.34 0 0.68 0 0 Z " fill="#E0847C" transform="translate(275,0)"/>
<path d="M0 0 C0.66 0 1.32 0 2 0 C0.53322772 4.54362219 -2.03454836 7.7676317 -5.125 11.3125 C-5.61274902 11.8799292 -6.10049805 12.4473584 -6.60302734 13.03198242 C-10.51992441 17.54610045 -14.51909545 22.03427967 -19 26 C-19.33 26 -19.66 26 -20 26 C-20 24.35 -20 22.7 -20 21 C-18.68 21 -17.36 21 -16 21 C-15.731875 20.360625 -15.46375 19.72125 -15.1875 19.0625 C-14 17 -14 17 -11 16 C-11.33 14.02 -11.66 12.04 -12 10 C-9 9 -9 9 -6 10 C-5.67 9.01 -5.34 8.02 -5 7 C-4.34 7 -3.68 7 -3 7 C-2.67 5.68 -2.34 4.36 -2 3 C-1.34 3 -0.68 3 0 3 C0 2.01 0 1.02 0 0 Z " fill="#6FA1F0" transform="translate(448,400)"/>
<path d="M0 0 C0.66 0.33 1.32 0.66 2 1 C1.566875 1.804375 1.566875 1.804375 1.125 2.625 C-0.16711808 5.35280484 -1.08558592 8.12612718 -2 11 C-2.70125 10.95875 -3.4025 10.9175 -4.125 10.875 C-7.47358065 11.02059046 -9.94709577 11.61231626 -13 13 C-13.59070014 14.94603274 -13.59070014 14.94603274 -14 17 C-16.4375 18.8125 -16.4375 18.8125 -19 20 C-19.66 19.67 -20.32 19.34 -21 19 C-17.50794062 15.40523299 -13.95966325 12.07973809 -10 9 C-9.34 9 -8.68 9 -8 9 C-7.67 8.01 -7.34 7.02 -7 6 C-5.37109375 4.39453125 -5.37109375 4.39453125 -3.4375 2.8125 C-2.47650391 2.01779297 -2.47650391 2.01779297 -1.49609375 1.20703125 C-1.00238281 0.80871094 -0.50867188 0.41039062 0 0 Z " fill="#51B433" transform="translate(88,319)"/>
<path d="M0 0 C1.98 0 3.96 0 6 0 C3.1914374 2.8085626 -0.22816589 4.25801754 -3.75 6 C-4.45382813 6.35578125 -5.15765625 6.7115625 -5.8828125 7.078125 C-9.85019415 9.05444151 -13.74260949 10.71475004 -18 12 C-18 11.34 -18 10.68 -18 10 C-17.34 10 -16.68 10 -16 10 C-15.9175 9.38125 -15.835 8.7625 -15.75 8.125 C-15 6 -15 6 -13.375 4.875 C-8.82523368 3.1987703 -4.87535184 2 0 2 C0 1.34 0 0.68 0 0 Z " fill="#E15747" transform="translate(188,113)"/>
<path d="M0 0 C0.99 0 1.98 0 3 0 C3 0.66 3 1.32 3 2 C0.97827136 3.85892472 -1.03343995 5.55835413 -3.1875 7.25 C-4.0547168 7.97703125 -4.0547168 7.97703125 -4.93945312 8.71875 C-6.66796875 10.078125 -6.66796875 10.078125 -10 12 C-13.93092217 11.25979782 -15.11722509 9.88277491 -18 7 C-14.37 7 -10.74 7 -7 7 C-6.34 5.35 -5.68 3.7 -5 2 C-3.35 2 -1.7 2 0 2 C0 1.34 0 0.68 0 0 Z " fill="#E16A61" transform="translate(339,113)"/>
<path d="M0 0 C4.29 0 8.58 0 13 0 C13 0.66 13 1.32 13 2 C19.93 2.99 26.86 3.98 34 5 C34 5.66 34 6.32 34 7 C22.37019226 6.73010995 11.24886535 3.72513222 0 1 C0 0.67 0 0.34 0 0 Z " fill="#7ECC90" transform="translate(185,492)"/>
<path d="M0 0 C2.95012857 1.36970255 5.5652222 2.82609125 8 5 C8 5.99 8 6.98 8 8 C5.8125 10.04296875 5.8125 10.04296875 3 12.1875 C2.071875 12.90292969 1.14375 13.61835937 0.1875 14.35546875 C-0.8953125 15.16951172 -0.8953125 15.16951172 -2 16 C-2.99 15.34 -3.98 14.68 -5 14 C-4.01 14 -3.02 14 -2 14 C-2 13.34 -2 12.68 -2 12 C-1.34 11.67 -0.68 11.34 0 11 C-0.33 10.01 -0.66 9.02 -1 8 C-0.01 7.34 0.98 6.68 2 6 C2.33 5.01 2.66 4.02 3 3 C1.68 2.67 0.36 2.34 -1 2 C-0.67 1.34 -0.34 0.68 0 0 Z " fill="#E65D54" transform="translate(402,51)"/>
<path d="M0 0 C-0.33 1.32 -0.66 2.64 -1 4 C-1.74765625 3.98839844 -2.4953125 3.97679687 -3.265625 3.96484375 C-4.25046875 3.95582031 -5.2353125 3.94679688 -6.25 3.9375 C-7.22453125 3.92589844 -8.1990625 3.91429687 -9.203125 3.90234375 C-11.86887093 3.88942339 -11.86887093 3.88942339 -13.84960938 4.5 C-16.36263346 5.08431804 -18.62362013 5.11265337 -21.203125 5.09765625 C-22.1828125 5.09443359 -23.1625 5.09121094 -24.171875 5.08789062 C-25.18765625 5.07951172 -26.2034375 5.07113281 -27.25 5.0625 C-28.796875 5.05573242 -28.796875 5.05573242 -30.375 5.04882812 C-32.91672573 5.03706088 -35.45833319 5.02062011 -38 5 C-38 4.67 -38 4.34 -38 4 C-37.11739502 3.91435791 -36.23479004 3.82871582 -35.32543945 3.74047852 C-32.03584827 3.42006519 -28.74649536 3.09738675 -25.45727539 2.77319336 C-24.0364653 2.63361919 -22.61556741 2.4949357 -21.19458008 2.35717773 C-19.14640684 2.1584583 -17.09857578 1.95648663 -15.05078125 1.75390625 C-13.82012939 1.63345947 -12.58947754 1.5130127 -11.3215332 1.38891602 C-7.488111 0.94006327 -3.86044039 0 0 0 Z " fill="#65C078" transform="translate(284,394)"/>
<path d="M0 0 C0.33 0 0.66 0 1 0 C1.09796875 1.09054687 1.1959375 2.18109375 1.296875 3.3046875 C2.37490746 14.44103672 4.3541166 25.13389632 7 36 C5.07421875 35.47265625 5.07421875 35.47265625 3 34 C2.39674666 31.38193995 2.0315037 29.08769086 1.8125 26.4375 C1.75578428 21.84373476 1.75578428 21.84373476 0 18 C-0.08631874 16.65732587 -0.10706473 15.31025678 -0.09765625 13.96484375 C-0.09443359 13.15595703 -0.09121094 12.34707031 -0.08789062 11.51367188 C-0.07951172 10.66353516 -0.07113281 9.81339844 -0.0625 8.9375 C-0.05798828 8.08349609 -0.05347656 7.22949219 -0.04882812 6.34960938 C-0.03700373 4.23304337 -0.01906769 2.11651315 0 0 Z " fill="#F5C653" transform="translate(102,258)"/>
<path d="M0 0 C5.61 0 11.22 0 17 0 C16.67 1.32 16.34 2.64 16 4 C18.97 4.66 21.94 5.32 25 6 C21 8 21 8 17.79296875 7.171875 C16.60316406 6.70265625 15.41335938 6.2334375 14.1875 5.75 C9.48324565 3.92370278 4.86376407 2.3202535 0 1 C0 0.67 0 0.34 0 0 Z " fill="#E3594B" transform="translate(285,106)"/>
<path d="M0 0 C0 3.10551666 -0.5393715 4.35261084 -2 7 C-2.66 7 -3.32 7 -4 7 C-4 8.32 -4 9.64 -4 11 C-4.99 11 -5.98 11 -7 11 C-7 11.66 -7 12.32 -7 13 C-8.98 13.33 -10.96 13.66 -13 14 C-8.88380164 9.08064098 -4.59589638 4.47352044 0 0 Z " fill="#719DE8" transform="translate(362,346)"/>
<path d="M0 0 C0.33 0.66 0.66 1.32 1 2 C1.66 2 2.32 2 3 2 C3.66 7.28 4.32 12.56 5 18 C5.66 18 6.32 18 7 18 C7.33 20.97 7.66 23.94 8 27 C5.49677171 23.24515757 4.29761956 19.4451485 2.875 15.1875 C2.59785156 14.39279297 2.32070312 13.59808594 2.03515625 12.77929688 C0.55671091 8.37673429 -0.34884536 4.70941231 0 0 Z " fill="#F2CF5B" transform="translate(8,313)"/>
<path d="M0 0 C0.60328125 0.08378906 1.2065625 0.16757812 1.828125 0.25390625 C3.02695313 0.40666016 3.02695313 0.40666016 4.25 0.5625 C5.03890625 0.66691406 5.8278125 0.77132813 6.640625 0.87890625 C9.00532874 1.00027349 10.7511037 0.69633257 13 0 C12.67 0.66 12.34 1.32 12 2 C11.34 2 10.68 2 10 2 C9.67 3.32 9.34 4.64 9 6 C9.86625 6.185625 9.86625 6.185625 10.75 6.375 C13.02335767 7.00648824 14.9253529 7.88858191 17 9 C17 9.66 17 10.32 17 11 C13.09544063 9.57497833 9.75164038 7.73347873 6.25 5.5 C5.28578125 4.8915625 4.3215625 4.283125 3.328125 3.65625 C1 2 1 2 0 0 Z " fill="#55B96C" transform="translate(99,450)"/>
<path d="M0 0 C0.66 0 1.32 0 2 0 C1.89042969 0.53625 1.78085938 1.0725 1.66796875 1.625 C0.02745157 9.73422314 -1.48629829 17.86637615 -3 26 C-3.33 26 -3.66 26 -4 26 C-4.02685412 23.68756208 -4.04632841 21.3750373 -4.0625 19.0625 C-4.07410156 17.77472656 -4.08570312 16.48695313 -4.09765625 15.16015625 C-4 12 -4 12 -3 11 C-2.855625 9.906875 -2.71125 8.81375 -2.5625 7.6875 C-2.08526936 4.55898801 -1.59539315 2.65898859 0 0 Z " fill="#F4C445" transform="translate(107,205)"/>
<path d="M0 0 C6.06447551 2.53861765 10.90898112 6.77209826 14.6875 12.125 C12.52924363 11.15750577 10.8974391 10.34406689 9.25 8.625 C7.2718405 6.72596688 5.25191218 6.02600969 2.6875 5.125 C2.6875 4.465 2.6875 3.805 2.6875 3.125 C-0.6125 3.455 -3.9125 3.785 -7.3125 4.125 C-3.116149 0.16844049 -3.116149 0.16844049 0 0 Z " fill="#4BAD89" transform="translate(324.3125,377.875)"/>
<path d="M0 0 C0.33 0.66 0.66 1.32 1 2 C-1.72876308 2.33695862 -4.45793163 2.66968429 -7.1875 3 C-8.34088867 3.14308594 -8.34088867 3.14308594 -9.51757812 3.2890625 C-13.36928811 3.75192894 -17.11170851 4.12467468 -21 4 C-19.17362195 1.52901793 -18.03744247 1.00858057 -15 0.3125 C-10.02157491 -0.22281453 -4.99923476 -0.08136187 0 0 Z " fill="#E16657" transform="translate(240,101)"/>
<path d="M0 0 C0.66 0.33 1.32 0.66 2 1 C0.33333333 2.66666667 -1.33333333 4.33333333 -3 6 C-3.928125 7.0209375 -3.928125 7.0209375 -4.875 8.0625 C-7.72366377 10.65981108 -10.54593316 12.27296658 -14 14 C-14.66 13.67 -15.32 13.34 -16 13 C-13.89746067 11.20639298 -11.79305667 9.41505881 -9.6875 7.625 C-8.79514648 6.86316406 -8.79514648 6.86316406 -7.88476562 6.0859375 C-7.01948242 5.35117187 -7.01948242 5.35117187 -6.13671875 4.6015625 C-5.60780029 4.15119629 -5.07888184 3.70083008 -4.53393555 3.23681641 C-3.08837533 2.07125727 -1.54505544 1.03003696 0 0 Z " fill="#E56D64" transform="translate(104,45)"/>
<path d="M0 0 C0.38800781 0.52078125 0.77601562 1.0415625 1.17578125 1.578125 C3.49130571 4.65226882 5.83885949 7.70112287 8.1875 10.75 C8.65091797 11.35199219 9.11433594 11.95398438 9.59179688 12.57421875 C10.72764399 14.04964902 11.86379175 15.52484782 13 17 C12.01 17.33 11.02 17.66 10 18 C8 17 8 17 6.5625 13.5 C6.046875 12.345 5.53125 11.19 5 10 C4.01 9.67 3.02 9.34 2 9 C1.01 8.67 0.02 8.34 -1 8 C-0.67 7.34 -0.34 6.68 0 6 C0.039992 4.00039988 0.04346799 1.99952758 0 0 Z " fill="#51B266" transform="translate(123,326)"/>
<path d="M0 0 C0.33 0 0.66 0 1 0 C1.02688151 1.64574566 1.04634123 3.29161413 1.0625 4.9375 C1.07410156 5.85402344 1.08570313 6.77054688 1.09765625 7.71484375 C1 10 1 10 0 11 C-0.39569108 13.01311449 -0.74252191 15.03597208 -1.0625 17.0625 C-1.23910156 18.16722656 -1.41570312 19.27195313 -1.59765625 20.41015625 C-1.73042969 21.26480469 -1.86320313 22.11945313 -2 23 C-2.66 22.67 -3.32 22.34 -4 22 C-3.52759949 18.51987918 -3.0459514 15.04110146 -2.5625 11.5625 C-2.36043945 10.07266602 -2.36043945 10.07266602 -2.15429688 8.55273438 C-2.02216797 7.60849609 -1.89003906 6.66425781 -1.75390625 5.69140625 C-1.63345947 4.81685791 -1.5130127 3.94230957 -1.38891602 3.04125977 C-1 1 -1 1 0 0 Z " fill="#F0D15F" transform="translate(4,200)"/>
<path d="M0 0 C7.66795502 2.33937611 14.77137274 5.54768806 22 9 C20.02 9.99 20.02 9.99 18 11 C17.67 10.34 17.34 9.68 17 9 C14.88672575 8.09274566 14.88672575 8.09274566 12.4375 7.375 C11.61121094 7.11460938 10.78492188 6.85421875 9.93359375 6.5859375 C8.97646484 6.29589844 8.97646484 6.29589844 8 6 C8 5.34 8 4.68 8 4 C5.03 3.67 2.06 3.34 -1 3 C-0.67 2.01 -0.34 1.02 0 0 Z " fill="#E3695E" transform="translate(340,16)"/>
<path d="M0 0 C2.31 0.66 4.62 1.32 7 2 C3.33462748 4.44358168 -0.36872864 5.72189872 -4.5 7.1875 C-5.27214844 7.47302734 -6.04429687 7.75855469 -6.83984375 8.05273438 C-7.58363281 8.31763672 -8.32742188 8.58253906 -9.09375 8.85546875 C-9.77115234 9.09934326 -10.44855469 9.34321777 -11.14648438 9.59448242 C-13 10 -13 10 -16 9 C-12.77621244 6.8508083 -10.01585352 5.975006 -6.3125 4.875 C-5.13300781 4.52179688 -3.95351563 4.16859375 -2.73828125 3.8046875 C-1.38283203 3.40636719 -1.38283203 3.40636719 0 3 C0 2.01 0 1.02 0 0 Z " fill="#60BE74" transform="translate(335,481)"/>
<path d="M0 0 C5.86140147 2.82215627 11.96552546 5.93105092 15 12 C11.67063922 11.44510654 8.82853408 10.88568938 6 9 C4.4375 6.625 4.4375 6.625 3 4 C2.01755155 2.65368175 1.02323436 1.31558703 0 0 Z " fill="#419DB0" transform="translate(342,392)"/>
<path d="M0 0 C2.23915618 3.35873427 3.69032729 6.8389434 5.1875 10.5625 C5.47302734 11.24763672 5.75855469 11.93277344 6.05273438 12.63867188 C6.76394161 14.4019813 7.38874045 16.19960071 8 18 C7.67 18.66 7.34 19.32 7 20 C6.34 20 5.68 20 5 20 C3.97493954 17.06149334 3.04545662 14.25569351 2.5 11.1875 C2.2525 10.1046875 2.2525 10.1046875 2 9 C1.34 8.67 0.68 8.34 0 8 C0 5.36 0 2.72 0 0 Z " fill="#94C975" transform="translate(109,295)"/>
<path d="M0 0 C0.99 0 1.98 0 3 0 C2.85796663 2.37528151 2.71148388 4.75015251 2.5625 7.125 C2.52318359 7.79015625 2.48386719 8.4553125 2.44335938 9.140625 C2.187848 13.15018817 1.73217587 17.04994196 1 21 C0.67 21 0.34 21 0 21 C0 14.07 0 7.14 0 0 Z " fill="#92B2E6" transform="translate(497,272)"/>
<path d="M0 0 C0.99 0.99 1.98 1.98 3 3 C1.75122171 6.74633486 -0.06047445 8.41041797 -3 11 C-3.99 11 -4.98 11 -6 11 C-4.54955729 6.89041233 -2.48889248 3.56741255 0 0 Z " fill="#E34D40" transform="translate(43,108)"/>
<path d="M0 0 C0 3.10551666 -0.5393715 4.35261084 -2 7 C-2.99 7 -3.98 7 -5 7 C-5.226875 7.639375 -5.45375 8.27875 -5.6875 8.9375 C-7 11 -7 11 -9.625 11.75 C-10.40875 11.8325 -11.1925 11.915 -12 12 C-8.32167983 7.47384007 -4.58913637 3.60575001 0 0 Z " fill="#E45247" transform="translate(84,62)"/>
<path d="M0 0 C4.95 0.33 9.9 0.66 15 1 C6.29411765 5.35294118 6.29411765 5.35294118 1.5625 4.625 C1.046875 4.41875 0.53125 4.2125 0 4 C0 2.68 0 1.36 0 0 Z " fill="#62C174" transform="translate(304,490)"/>
<path d="M0 0 C0.598125 0.309375 1.19625 0.61875 1.8125 0.9375 C4.08956772 2.10209704 4.08956772 2.10209704 7 3 C7 3.66 7 4.32 7 5 C7.66 5 8.32 5 9 5 C9 5.66 9 6.32 9 7 C10.65 7 12.3 7 14 7 C14.66 8.98 15.32 10.96 16 13 C12.06014326 11.32651716 8.98587525 8.67405957 5.75 5.9375 C5.19570312 5.47794922 4.64140625 5.01839844 4.0703125 4.54492188 C2.69175775 3.38876943 1.34298593 2.19728462 0 1 C0 0.67 0 0.34 0 0 Z " fill="#ED611E" transform="translate(91,186)"/>
<path d="M0 0 C4.16416285 1.72735644 7.303638 4.59954686 10.6875 7.5 C11.28111328 7.99886719 11.87472656 8.49773437 12.48632812 9.01171875 C16.87051246 12.74102493 16.87051246 12.74102493 18 15 C14.23742169 13.33683133 11.11356346 10.93143026 7.875 8.4375 C4.10438856 5.46232182 4.10438856 5.46232182 0 3 C0 2.01 0 1.02 0 0 Z " fill="#FDA218" transform="translate(38,144)"/>
<path d="M0 0 C6.48707154 1.6813917 12.7677635 3.53062327 19 6 C15.08263419 7.1700097 12.02040985 6.69584017 8 6 C8 5.34 8 4.68 8 4 C6.35 4 4.7 4 3 4 C3 3.34 3 2.68 3 2 C2.01 2 1.02 2 0 2 C0 1.34 0 0.68 0 0 Z " fill="#E37168" transform="translate(320,9)"/>
<path d="M0 0 C2 2 2 2 2.08203125 4.05859375 C1.99308594 4.84363281 1.90414063 5.62867188 1.8125 6.4375 C1.73644531 7.21996094 1.66039062 8.00242187 1.58203125 8.80859375 C0.90986979 11.33934933 -0.01877732 12.33919069 -2 14 C-3.125 7.25 -3.125 7.25 -2 5 C-1.34 5 -0.68 5 0 5 C0 3.35 0 1.7 0 0 Z " fill="#76A1E8" transform="translate(495,292)"/>
<path d="M0 0 C0 3.5094654 -0.5925541 5.7829808 -2 9 C-4.5625 10.75 -4.5625 10.75 -7 12 C-7.33 12.66 -7.66 13.32 -8 14 C-8.66 14 -9.32 14 -10 14 C-8.43632643 10.47761953 -6.30504111 7.72876006 -3.875 4.75 C-3.15054687 3.85796875 -2.42609375 2.9659375 -1.6796875 2.046875 C-0.84824219 1.03367187 -0.84824219 1.03367187 0 0 Z " fill="#749FE1" transform="translate(373,332)"/>
<path d="M0 0 C4.30764815 1.56641751 8.06171464 3.68336156 12 6 C12 6.33 12 6.66 12 7 C9.03 7 6.06 7 3 7 C1 3 1 3 0 0 Z M1 7 C1.99 7.495 1.99 7.495 3 8 C2.01 8.495 2.01 8.495 1 9 C1 8.34 1 7.68 1 7 Z " fill="#E65F53" transform="translate(384,39)"/>
<path d="M0 0 C1.32 0.33 2.64 0.66 4 1 C4 1.66 4 2.32 4 3 C4.99 3.33 5.98 3.66 7 4 C7 4.66 7 5.32 7 6 C7.99 6.33 8.98 6.66 10 7 C11.6875 9.5625 11.6875 9.5625 13 12 C9.08158173 10.69386058 6.67359191 9.16870152 4 6 C4 5.34 4 4.68 4 4 C3.34 4 2.68 4 2 4 C2 3.34 2 2.68 2 2 C1.34 2 0.68 2 0 2 C0 1.34 0 0.68 0 0 Z " fill="#39A28E" transform="translate(357,404)"/>
<path d="M0 0 C5.61 0 11.22 0 17 0 C17.33 1.98 17.66 3.96 18 6 C16.35 6.66 14.7 7.32 13 8 C13.66 6.02 14.32 4.04 15 2 C10.05 1.67 5.1 1.34 0 1 C0 0.67 0 0.34 0 0 Z " fill="#7BA4E7" transform="translate(372,302)"/>
<path d="M0 0 C-1.28548409 1.33929505 -2.57858155 2.67128643 -3.875 4 C-4.59429687 4.7425 -5.31359375 5.485 -6.0546875 6.25 C-8 8 -8 8 -10 8 C-9.3125 4.625 -9.3125 4.625 -8 1 C-4.71770407 -1.01987442 -3.69177042 -1.23059014 0 0 Z " fill="#6D9BEC" transform="translate(426,429)"/>
<path d="M0 0 C0 3 0 3 -2 6 C-3.64556566 7.03435556 -5.3170608 8.02763513 -7 9 C-9.36065617 10.63090976 -11.67730301 12.3149061 -14 14 C-14.66 13.67 -15.32 13.34 -16 13 C-15.34773438 12.48050781 -14.69546875 11.96101563 -14.0234375 11.42578125 C-9.30839912 7.66348662 -4.61407865 3.88553991 0 0 Z " fill="#6B92DF" transform="translate(348,360)"/>
<path d="M0 0 C3.3 0.33 6.6 0.66 10 1 C8.73046875 2.46484375 7.4609375 3.9296875 6.19140625 5.39453125 C4.79128769 7.10712971 4.79128769 7.10712971 4 10 C3.32845067 8.71086513 2.66291141 7.41859796 2 6.125 C1.62875 5.40570313 1.2575 4.68640625 0.875 3.9453125 C0 2 0 2 0 0 Z " fill="#D8C43B" transform="translate(26,362)"/>
<path d="M0 0 C7.02263808 2.12807214 12.01581506 7.86477915 17 13 C13.13748641 13 12.41713684 11.8902236 9.625 9.3125 C8.83480469 8.58675781 8.04460937 7.86101562 7.23046875 7.11328125 C4.77186053 4.78384684 2.35648827 2.43250402 0 0 Z " fill="#E95F1B" transform="translate(69,168)"/>
<path d="M0 0 C1.41623216 -0.05447047 2.83308191 -0.09300508 4.25 -0.125 C5.03890625 -0.14820313 5.8278125 -0.17140625 6.640625 -0.1953125 C9.20731941 0.0171622 10.7916067 0.71345895 13 2 C13 2.66 13 3.32 13 4 C13.99 4.33 14.98 4.66 16 5 C14 6 14 6 10.7421875 5.00390625 C9.4502948 4.53110016 8.16131362 4.05028031 6.875 3.5625 C6.21628906 3.31951172 5.55757812 3.07652344 4.87890625 2.82617188 C3.25008662 2.22421679 1.62470425 1.61297588 0 1 C0 0.67 0 0.34 0 0 Z " fill="#62C077" transform="translate(158,483)"/>
<path d="M0 0 C0.66 0.33 1.32 0.66 2 1 C-1.55744951 5.74326601 -4.61153256 8.45827007 -10 11 C-10.66 10.67 -11.32 10.34 -12 10 C-11.2575 9.608125 -10.515 9.21625 -9.75 8.8125 C-6.78773579 6.86009859 -5.14878631 4.7934222 -3 2 C-2.01 1.34 -1.02 0.68 0 0 Z " fill="#7DB52A" transform="translate(48,352)"/>
<path d="M0 0 C0.33 0 0.66 0 1 0 C0.51030705 6.61085476 -1.33442742 11.94977014 -4 18 C-4.33 18 -4.66 18 -5 18 C-5 15.69 -5 13.38 -5 11 C-4.34 11 -3.68 11 -3 11 C-3 9.68 -3 8.36 -3 7 C-2.34 7 -1.68 7 -1 7 C-1.020625 6.030625 -1.04125 5.06125 -1.0625 4.0625 C-1 1 -1 1 0 0 Z " fill="#88ADE9" transform="translate(488,324)"/>
<path d="M0 0 C-3.41407092 1.86680725 -6.90861303 2.99246672 -10.625 4.125 C-11.77226562 4.47820312 -12.91953125 4.83140625 -14.1015625 5.1953125 C-17 6 -17 6 -19 6 C-19 5.34 -19 4.68 -19 4 C-13.5018812 0.33458746 -6.52793043 -0.34357529 0 0 Z " fill="#E76F67" transform="translate(219,105)"/>
<path d="M0 0 C-0.33 1.65 -0.66 3.3 -1 5 C-2.1446875 4.9690625 -2.1446875 4.9690625 -3.3125 4.9375 C-6.10185786 4.87057159 -6.10185786 4.87057159 -9 6 C-9 6.66 -9 7.32 -9 8 C-10.32 7.67 -11.64 7.34 -13 7 C-12.45730469 6.66226563 -11.91460937 6.32453125 -11.35546875 5.9765625 C-10.64003906 5.53054687 -9.92460938 5.08453125 -9.1875 4.625 C-8.47980469 4.18414062 -7.77210937 3.74328125 -7.04296875 3.2890625 C-1.83030303 0 -1.83030303 0 0 0 Z " fill="#E26057" transform="translate(119,37)"/>
<path d="M0 0 C0.33 0.66 0.66 1.32 1 2 C1.99 2.33 2.98 2.66 4 3 C1.36 5.31 -1.28 7.62 -4 10 C-4.66 9.01 -5.32 8.02 -6 7 C-4.35 6.67 -2.7 6.34 -1 6 C-1.20625 5.38125 -1.4125 4.7625 -1.625 4.125 C-1.74875 3.42375 -1.8725 2.7225 -2 2 C-1.34 1.34 -0.68 0.68 0 0 Z " fill="#659DE3" transform="translate(411,436)"/>
<path d="M0 0 C0.66 0.33 1.32 0.66 2 1 C1.04600922 2.79398267 0.08665974 4.58511655 -0.875 6.375 C-1.40867187 7.37273437 -1.94234375 8.37046875 -2.4921875 9.3984375 C-4 12 -4 12 -6 14 C-5.44894091 10.0507432 -4.61064629 6.65079826 -3 3 C-2.34 3 -1.68 3 -1 3 C-0.67 2.01 -0.34 1.02 0 0 Z " fill="#E07B73" transform="translate(124,169)"/>
<path d="M0 0 C1.65 0.33 3.3 0.66 5 1 C4.04578192 2.14926266 3.08647955 3.29430541 2.125 4.4375 C1.59132812 5.07558594 1.05765625 5.71367187 0.5078125 6.37109375 C-1 8 -1 8 -3 9 C-3 7.35 -3 5.7 -3 4 C-2.34 4 -1.68 4 -1 4 C-0.67 2.68 -0.34 1.36 0 0 Z " fill="#E8675D" transform="translate(148,137)"/>
<path d="M0 0 C1.32 0.66 2.64 1.32 4 2 C2.63875 2.86625 2.63875 2.86625 1.25 3.75 C-1.52022946 5.66785116 -3.71945499 7.54402845 -6 10 C-6.66 9.67 -7.32 9.34 -8 9 C-5.36 6.03 -2.72 3.06 0 0 Z " fill="#E86A60" transform="translate(63,82)"/>
<path d="M0 0 C0.33 0.66 0.66 1.32 1 2 C1.763125 1.649375 2.52625 1.29875 3.3125 0.9375 C6 0 6 0 9 1 C7.04754815 2.19714555 5.08785003 3.38248074 3.125 4.5625 C2.03445313 5.22378906 0.94390625 5.88507813 -0.1796875 6.56640625 C-1.57574219 7.27603516 -1.57574219 7.27603516 -3 8 C-3.66 7.67 -4.32 7.34 -5 7 C-4.67 6.34 -4.34 5.68 -4 5 C-3.01 5 -2.02 5 -1 5 C-0.67 3.35 -0.34 1.7 0 0 Z " fill="#47B15F" transform="translate(369,465)"/>
<path d="M0 0 C1.65 0 3.3 0 5 0 C5.33951619 1.56116819 5.67132544 3.12401338 6 4.6875 C6.185625 5.55761719 6.37125 6.42773438 6.5625 7.32421875 C6.98972047 9.93712964 7.07616201 12.35813038 7 15 C5.51171875 13.85546875 5.51171875 13.85546875 4 12 C3.70703125 9.30078125 3.70703125 9.30078125 3.8125 6.3125 C3.83957031 5.31863281 3.86664063 4.32476562 3.89453125 3.30078125 C3.92933594 2.54152344 3.96414063 1.78226563 4 1 C2.68 0.67 1.36 0.34 0 0 Z " fill="#98B7E2" transform="translate(492,203)"/>
<path d="M0 0 C1.39214652 4.17643955 -0.29335734 6.83437793 -1.9375 10.6875 C-2.22818359 11.38939453 -2.51886719 12.09128906 -2.81835938 12.81445312 C-3.53710313 14.54650775 -4.26745331 16.27373781 -5 18 C-6.45606519 13.47907032 -5.27032841 10.48351204 -4 6 C-3.34 6 -2.68 6 -2 6 C-1.855625 5.195625 -1.71125 4.39125 -1.5625 3.5625 C-1 1 -1 1 0 0 Z " fill="#E88E76" transform="translate(115,187)"/>
<path d="M0 0 C3.52238047 1.56367357 6.27123994 3.69495889 9.25 6.125 C10.14203125 6.84945312 11.0340625 7.57390625 11.953125 8.3203125 C12.62859375 8.87460938 13.3040625 9.42890625 14 10 C13.01 10.495 13.01 10.495 12 11 C8.26415094 9.52830189 8.26415094 9.52830189 7 7 C6.154375 6.505 5.30875 6.01 4.4375 5.5 C3.633125 5.005 2.82875 4.51 2 4 C2 3.34 2 2.68 2 2 C1.34 2 0.68 2 0 2 C0 1.34 0 0.68 0 0 Z " fill="#FEA917" transform="translate(56,159)"/>
<path d="M0 0 C-3.43535849 3.17175425 -6.15330091 3.45766505 -10.75 3.6875 C-11.92046875 3.75324219 -13.0909375 3.81898438 -14.296875 3.88671875 C-15.18890625 3.92410156 -16.0809375 3.96148437 -17 4 C-11.4581339 1.12016565 -6.2800816 -0.30634544 0 0 Z " fill="#61BE75" transform="translate(302,390)"/>
<path d="M0 0 C1.45880109 0.14107747 2.91703551 0.28802415 4.375 0.4375 C5.59316406 0.55931641 5.59316406 0.55931641 6.8359375 0.68359375 C9 1 9 1 11 2 C11 2.66 11 3.32 11 4 C11.66 4 12.32 4 13 4 C13 4.66 13 5.32 13 6 C3.40546697 3.10933941 3.40546697 3.10933941 0 0 Z " fill="#52B569" transform="translate(140,475)"/>
<path d="M0 0 C0.66 0 1.32 0 2 0 C0.61811547 3.21043882 -0.92421903 5.04936365 -3.625 7.25 C-4.57246094 8.03117187 -4.57246094 8.03117187 -5.5390625 8.828125 C-6.02117187 9.21484375 -6.50328125 9.6015625 -7 10 C-7 8.35 -7 6.7 -7 5 C-5.68 5 -4.36 5 -3 5 C-2.690625 4.360625 -2.38125 3.72125 -2.0625 3.0625 C-1 1 -1 1 0 0 Z " fill="#759CE8" transform="translate(435,416)"/>
<path d="M0 0 C0.66 0.33 1.32 0.66 2 1 C0.625 2.5 0.625 2.5 -1 4 C-1.66 4 -2.32 4 -3 4 C-3.061875 4.598125 -3.12375 5.19625 -3.1875 5.8125 C-4.33938899 8.91373958 -6.06759592 9.64108103 -9 11 C-9.66 10.67 -10.32 10.34 -11 10 C-7.50640535 6.40365256 -3.88901869 3.16548033 0 0 Z " fill="#5AAE2B" transform="translate(78,328)"/>
<path d="M0 0 C1.98 0 3.96 0 6 0 C3.87838666 2.12161334 2.2266841 2.92986249 -0.5 4.125 C-1.2940625 4.47820312 -2.088125 4.83140625 -2.90625 5.1953125 C-5 6 -5 6 -7 6 C-7.33 5.01 -7.66 4.02 -8 3 C-5.36 2.67 -2.72 2.34 0 2 C0 1.34 0 0.68 0 0 Z " fill="#E47267" transform="translate(188,113)"/>
<path d="M0 0 C1.98 0 3.96 0 6 0 C2.09130466 3.15702316 -1.8614939 6 -7 6 C-6.67 5.01 -6.34 4.02 -6 3 C-5.01 3.33 -4.02 3.66 -3 4 C-3 3.34 -3 2.68 -3 2 C-2.01 2 -1.02 2 0 2 C0 1.34 0 0.68 0 0 Z " fill="#4EB469" transform="translate(358,473)"/>
<path d="M0 0 C1 2 2 4 3 6 C1.68 6 0.36 6 -1 6 C-1.66 7.98 -2.32 9.96 -3 12 C-3.66 12 -4.32 12 -5 12 C-3.68938409 7.76570244 -2.05643741 3.92592596 0 0 Z " fill="#F1AF45" transform="translate(28,132)"/>
<path d="M0 0 C1.98 0 3.96 0 6 0 C2.2064129 3.21880117 -1.65829477 5.6163187 -6 8 C-5.25 6.0625 -5.25 6.0625 -4 4 C-1.875 3.25 -1.875 3.25 0 3 C0 2.01 0 1.02 0 0 Z " fill="#46AE62" transform="translate(385,457)"/>
<path d="M0 0 C4.75 0.875 4.75 0.875 7 2 C7.33 2.99 7.66 3.98 8 5 C10.00016466 6.20882096 10.00016466 6.20882096 12 7 C11.01 7.33 10.02 7.66 9 8 C6.73828125 6.6015625 6.73828125 6.6015625 4.3125 4.625 C3.50425781 3.97789062 2.69601563 3.33078125 1.86328125 2.6640625 C1.24839844 2.11492187 0.63351563 1.56578125 0 1 C0 0.67 0 0.34 0 0 Z " fill="#62BA76" transform="translate(89,442)"/>
<path d="M0 0 C3.26189156 0.5623951 4.91134848 1.4140505 7 4 C7.33 4.99 7.66 5.98 8 7 C7.01 7 6.02 7 5 7 C0 1.53488372 0 1.53488372 0 0 Z " fill="#68C078" transform="translate(57,410)"/>
<path d="M0 0 C0.33 0.99 0.66 1.98 1 3 C0.38125 3.0825 -0.2375 3.165 -0.875 3.25 C-3.18437567 3.81258459 -3.18437567 3.81258459 -4.25 6.0625 C-4.4975 6.701875 -4.745 7.34125 -5 8 C-6.32 7.67 -7.64 7.34 -9 7 C-6.03 4.69 -3.06 2.38 0 0 Z " fill="#4BAD35" transform="translate(39,361)"/>
<path d="M0 0 C3.09592835 3.5087188 4.74194623 6.49197399 6 11 C5.01 11 4.02 11 3 11 C0.84694043 7.14243493 -0.39253254 4.44870215 0 0 Z " fill="#71C484" transform="translate(117,315)"/>
<path d="M0 0 C3.21524305 1.40844718 5.32183868 3.10344786 7.75 5.625 C8.67039062 6.57246094 8.67039062 6.57246094 9.609375 7.5390625 C10.29773438 8.26222656 10.29773438 8.26222656 11 9 C7.70947183 9 6.66523085 8.85758514 4 7 C2.46882955 4.73721227 1.26214014 2.43412742 0 0 Z " fill="#34A875" transform="translate(388,430)"/>
<path d="M0 0 C0 3.67034745 -1.0752892 5.0999431 -3 8.1875 C-3.556875 9.08855469 -4.11375 9.98960937 -4.6875 10.91796875 C-5.120625 11.60503906 -5.55375 12.29210937 -6 13 C-6.33 11.68 -6.66 10.36 -7 9 C-6.34 9 -5.68 9 -5 9 C-4.731875 7.88625 -4.46375 6.7725 -4.1875 5.625 C-3 2 -3 2 0 0 Z " fill="#698FE1" transform="translate(464,378)"/>
<path d="M0 0 C0.66 0 1.32 0 2 0 C2.21192221 5.19209404 1.5912689 9.126739 0 14 C-0.33 14 -0.66 14 -1 14 C-1.08333357 9.1666528 -0.95261487 4.76307437 0 0 Z " fill="#87AFE9" transform="translate(491,309)"/>
<path d="M0 0 C1.43931117 0.45261358 2.87638999 0.91232979 4.3125 1.375 C5.11300781 1.63023437 5.91351563 1.88546875 6.73828125 2.1484375 C9 3 9 3 12 5 C9.39517051 5.94721072 7.69325299 6.30222393 5.109375 5.17578125 C3.37417127 4.17063275 1.68359577 3.0893855 0 2 C0 1.34 0 0.68 0 0 Z " fill="#65C27D" transform="translate(190,385)"/>
<path d="M0 0 C4.96916636 0.51405169 9.29026351 1.23384882 14 3 C12.328125 4.1171875 12.328125 4.1171875 10 5 C7.421875 4.3203125 7.421875 4.3203125 4.75 3.125 C3.85796875 2.73570313 2.9659375 2.34640625 2.046875 1.9453125 C1.37140625 1.63335937 0.6959375 1.32140625 0 1 C0 0.67 0 0.34 0 0 Z " fill="#E67064" transform="translate(296,109)"/>
<path d="M0 0 C0.66 0 1.32 0 2 0 C0.5140084 4.59306496 -1.85014682 7.43569245 -5 11 C-5.33 10.01 -5.66 9.02 -6 8 C-5.01 7.67 -4.02 7.34 -3 7 C-2.26676204 4.98491642 -2.26676204 4.98491642 -2 3 C-1.34 3 -0.68 3 0 3 C0 2.01 0 1.02 0 0 Z " fill="#8FABED" transform="translate(448,400)"/>
<path d="M0 0 C-0.33 1.32 -0.66 2.64 -1 4 C-3.97 3.67 -6.94 3.34 -10 3 C-7.02931146 0.02931146 -4.09966187 0 0 0 Z " fill="#52B765" transform="translate(284,394)"/>
<path d="M0 0 C0.66 0.33 1.32 0.66 2 1 C1.01 1.33 0.02 1.66 -1 2 C-0.34 3.98 0.32 5.96 1 8 C-1.88437779 6.70700306 -3.87219421 5.34058637 -6 3 C-4.03533587 1.93224776 -2.03144641 0.93446535 0 0 Z " fill="#66A3D4" transform="translate(330,374)"/>
<path d="M0 0 C0.33 0.66 0.66 1.32 1 2 C1.66 2 2.32 2 3 2 C3 4.97 3 7.94 3 11 C2.34 10.67 1.68 10.34 1 10 C0.5859375 7.71484375 0.5859375 7.71484375 0.375 4.9375 C0.30023438 4.01839844 0.22546875 3.09929687 0.1484375 2.15234375 C0.09945313 1.44207031 0.05046875 0.73179687 0 0 Z " fill="#F1C438" transform="translate(8,313)"/>
<path d="M0 0 C1.24546405 2.49092811 0.7767578 3.41080733 0 6 C-2.31 6.66 -4.62 7.32 -7 8 C-6.02133662 6.85373678 -5.04205413 5.70800212 -4.0625 4.5625 C-3.51722656 3.92441406 -2.97195312 3.28632812 -2.41015625 2.62890625 C-1.63204305 1.73008851 -0.84063472 0.84063472 0 0 Z " fill="#E56155" transform="translate(71,74)"/>
<path d="M0 0 C0 3.21518097 -0.1621112 4.41024759 -2 7 C-5.125 8.25 -5.125 8.25 -8 9 C-7.04270084 7.87411986 -6.08412105 6.7493285 -5.125 5.625 C-4.59132813 4.99851562 -4.05765625 4.37203125 -3.5078125 3.7265625 C-2.38567993 2.44163349 -1.20628025 1.20628025 0 0 Z " fill="#81A6EB" transform="translate(362,346)"/>
<path d="M0 0 C0.66 0 1.32 0 2 0 C2.66 2.97 3.32 5.94 4 9 C2.68 8.34 1.36 7.68 0 7 C0 4.69 0 2.38 0 0 Z " fill="#F3C237" transform="translate(105,285)"/>
<path d="M0 0 C1.45606519 4.52092968 0.27032841 7.51648796 -1 12 C-1.99 12 -2.98 12 -4 12 C-2.66666667 8 -1.33333333 4 0 0 Z " fill="#F5CB4C" transform="translate(20,148)"/>
<path d="M0 0 C2.66355234 -0.39169887 4.39224373 -0.40564529 6.66796875 1.11328125 C8.1510888 2.36389317 9.57954352 3.67864514 11 5 C10.01 5.495 10.01 5.495 9 6 C6.96855359 5.06553465 4.96466413 4.06775224 3 3 C3 2.34 3 1.68 3 1 C2.01 0.67 1.02 0.34 0 0 Z " fill="#FDAB10" transform="translate(27,138)"/>
<path d="M0 0 C6.75 2.625 6.75 2.625 9 6 C5.65626525 5.44271087 2.96687001 4.64826111 0 3 C0 2.01 0 1.02 0 0 Z " fill="#35A580" transform="translate(348,398)"/>
<path d="M0 0 C2.29633824 3.44450737 2.54016485 5.93812283 3 10 C1.29115995 8.37660195 -0.37446717 6.70680947 -2 5 C-2 4.34 -2 3.68 -2 3 C-1.34 3 -0.68 3 0 3 C0 2.01 0 1.02 0 0 Z " fill="#58BD6F" transform="translate(52,398)"/>
<path d="M0 0 C0.99 0 1.98 0 3 0 C2.52797514 4.24822374 0.03344482 6.19989709 -3 9 C-3 7.35 -3 5.7 -3 4 C-2.01 3.67 -1.02 3.34 0 3 C0 2.01 0 1.02 0 0 Z " fill="#E16D60" transform="translate(134,153)"/>
<path d="M0 0 C1.32 0.66 2.64 1.32 4 2 C1.69 3.32 -0.62 4.64 -3 6 C-3.33 4.68 -3.66 3.36 -4 2 C-2.68 2 -1.36 2 0 2 C0 1.34 0 0.68 0 0 Z " fill="#DD4C43" transform="translate(166,124)"/>
<path d="M0 0 C2.31 0.33 4.62 0.66 7 1 C5.625 3 5.625 3 4 5 C3.34 5 2.68 5 2 5 C1.34 3.35 0.68 1.7 0 0 Z " fill="#E55B4C" transform="translate(350,100)"/>
<path d="M0 0 C0.66 0.33 1.32 0.66 2 1 C0.3125 3.0625 0.3125 3.0625 -2 5 C-4.75 4.75 -4.75 4.75 -7 4 C-4.61426621 2.10786631 -2.92824652 0.97608217 0 0 Z " fill="#E36559" transform="translate(158,16)"/>
<path d="M0 0 C-1.90598443 2.43542455 -3.00596275 3.00158196 -6.0625 3.8125 C-7.5165625 3.9053125 -7.5165625 3.9053125 -9 4 C-9.66 3.34 -10.32 2.68 -11 2 C-9.54494642 1.47007308 -8.08581873 0.9513211 -6.625 0.4375 C-5.81289062 0.14746094 -5.00078125 -0.14257812 -4.1640625 -0.44140625 C-2 -1 -2 -1 0 0 Z " fill="#E15F54" transform="translate(180,10)"/>
<path d="M0 0 C0.66 2.64 1.32 5.28 2 8 C-0.31 6.35 -2.62 4.7 -5 3 C-1.125 0 -1.125 0 0 0 Z " fill="#49B264" transform="translate(85,432)"/>
<path d="M0 0 C1.5625 1.25 1.5625 1.25 3 3 C2.6875 5.1875 2.6875 5.1875 2 7 C0.35 5.02 -1.3 3.04 -3 1 C-2.01 0.67 -1.02 0.34 0 0 Z " fill="#54B96B" transform="translate(77,427)"/>
<path d="M0 0 C-0.66 1.98 -1.32 3.96 -2 6 C-2.66 5.67 -3.32 5.34 -4 5 C-4 4.67 -4 4.34 -4 4 C-5.32 3.67 -6.64 3.34 -8 3 C-2.25 0 -2.25 0 0 0 Z " fill="#5FC074" transform="translate(317,382)"/>
<path d="M0 0 C0.33 0.66 0.66 1.32 1 2 C0.22265625 3.9453125 0.22265625 3.9453125 -0.9375 6.125 C-1.31777344 6.84945313 -1.69804687 7.57390625 -2.08984375 8.3203125 C-2.39019531 8.87460937 -2.69054687 9.42890625 -3 10 C-4.15941038 6.52176885 -3.70820884 4.54104422 -3 1 C-2.01 0.67 -1.02 0.34 0 0 Z " fill="#7EA3E9" transform="translate(473,362)"/>
<path d="M0 0 C1.32 0.66 2.64 1.32 4 2 C4 3.32 4 4.64 4 6 C2.35 5.67 0.7 5.34 -1 5 C-0.67 3.35 -0.34 1.7 0 0 Z " fill="#F8B015" transform="translate(105,199)"/>
<path d="M0 0 C1.15507777 3.93421227 0.83585767 6.97268577 0 11 C-0.99 11.495 -0.99 11.495 -2 12 C-3.12377697 8.69564916 -2.89554742 6.9493138 -1.5625 3.75 C-1.27503906 3.04359375 -0.98757812 2.3371875 -0.69140625 1.609375 C-0.46324219 1.07828125 -0.23507812 0.5471875 0 0 Z " fill="#F5CE5A" transform="translate(15,160)"/>
<path d="M0 0 C0.33 1.32 0.66 2.64 1 4 C-0.4375 6.25 -0.4375 6.25 -2 8 C-2.99 7.67 -3.98 7.34 -5 7 C-3.35 4.69 -1.7 2.38 0 0 Z " fill="#E6756B" transform="translate(54,92)"/>
<path d="M0 0 C0 0.99 0 1.98 0 3 C-2.77627845 5.67345333 -5.2241456 6.47557578 -9 7 C-7.06604999 4.09907498 -6.28812528 3.37695617 -3.375 1.8125 C-2.26125 1.214375 -1.1475 0.61625 0 0 Z " fill="#E34838" transform="translate(94,55)"/>
<path d="M0 0 C0.99 0.33 1.98 0.66 3 1 C3.6875 3.0625 3.6875 3.0625 4 5 C4.99 5 5.98 5 7 5 C6.67 6.32 6.34 7.64 6 9 C3.59927045 6.11912454 1.52708963 3.43595166 0 0 Z " fill="#42B061" transform="translate(39,385)"/>
<path d="M0 0 C0.5534764 2.07553648 1 3.84365964 1 6 C0.34 6 -0.32 6 -1 6 C-1 6.66 -1 7.32 -1 8 C-1.99 8.33 -2.98 8.66 -4 9 C-2.94124926 5.59687262 -1.99097846 2.98646769 0 0 Z " fill="#93B4E8" transform="translate(380,319)"/>
<path d="M0 0 C0.33 0.66 0.66 1.32 1 2 C1.99 2.33 2.98 2.66 4 3 C4 4.32 4 5.64 4 7 C3.34 7 2.68 7 2 7 C2 6.34 2 5.68 2 5 C1.01 5 0.02 5 -1 5 C-0.67 3.35 -0.34 1.7 0 0 Z " fill="#6EA0F0" transform="translate(384,310)"/>
<path d="M0 0 C0.33 0 0.66 0 1 0 C0.67 2.31 0.34 4.62 0 7 C-1.32 7.33 -2.64 7.66 -4 8 C-2.87548273 5.0280615 -1.77706209 2.66559313 0 0 Z " fill="#E15647" transform="translate(36,119)"/>
<path d="M0 0 C2.79651501 1.46817038 3.43411431 2.40553901 4.5 5.3125 C1.04074837 4.0633258 -1.64693203 2.63722205 -4.5 0.3125 C-2.5 -0.6875 -2.5 -0.6875 0 0 Z " fill="#4EB263" transform="translate(131.5,467.6875)"/>
<path d="M0 0 C3.465 1.485 3.465 1.485 7 3 C6.67 3.66 6.34 4.32 6 5 C4.68 5 3.36 5 2 5 C1.34 3.35 0.68 1.7 0 0 Z " fill="#5BB874" transform="translate(169,374)"/>
<path d="M0 0 C5.75 3.625 5.75 3.625 8 7 C5 7 5 7 3.4375 5.5 C2.963125 5.005 2.48875 4.51 2 4 C1.34 4 0.68 4 0 4 C0 2.68 0 1.36 0 0 Z " fill="#FEA814" transform="translate(92,188)"/>
<path d="M0 0 C2.475 0.495 2.475 0.495 5 1 C5.33 2.65 5.66 4.3 6 6 C3.37812506 4.95125002 2.20628639 4.35068687 0.75 1.875 C0.5025 1.25625 0.255 0.6375 0 0 Z " fill="#EB5325" transform="translate(101,193)"/>
<path d="M0 0 C0.99 0 1.98 0 3 0 C2.8125 1.875 2.8125 1.875 2 4 C-0.5625 5.25 -0.5625 5.25 -3 6 C-3 5.01 -3 4.02 -3 3 C-2.01 3 -1.02 3 0 3 C0 2.01 0 1.02 0 0 Z " fill="#E65C53" transform="translate(115,183)"/>
<path d="M0 0 C7.75 0.75 7.75 0.75 10 3 C8.375 3.6875 8.375 3.6875 6 4 C2.75 2.5625 2.75 2.5625 0 1 C0 0.67 0 0.34 0 0 Z " fill="#E66D68" transform="translate(309,114)"/>
<path d="M0 0 C2.475 0.99 2.475 0.99 5 2 C5 2.99 5 3.98 5 5 C3.35 4.67 1.7 4.34 0 4 C0 2.68 0 1.36 0 0 Z " fill="#E04E4A" transform="translate(378,35)"/>
<path d="M0 0 C0.66 0.33 1.32 0.66 2 1 C1.8125 2.8125 1.8125 2.8125 1 5 C-1.5625 6.75 -1.5625 6.75 -4 8 C-4 7.01 -4 6.02 -4 5 C-3.01 5 -2.02 5 -1 5 C-0.67 3.35 -0.34 1.7 0 0 Z " fill="#60B47F" transform="translate(404,443)"/>
<path d="M0 0 C2.97 0.495 2.97 0.495 6 1 C6 1.99 6 2.98 6 4 C4.35 4.33 2.7 4.66 1 5 C0.67 3.35 0.34 1.7 0 0 Z " fill="#50BF69" transform="translate(209,392)"/>
<path d="M0 0 C0.99 0 1.98 0 3 0 C1.92598892 2.91517292 1.22189824 4.77810176 -1 7 C-1.04254356 5.00045254 -1.04080783 2.99958364 -1 1 C-0.67 0.67 -0.34 0.34 0 0 Z " fill="#7BA3EC" transform="translate(452,393)"/>
<path d="M0 0 C0 3 0 3 -1.5 4.6875 C-1.995 5.120625 -2.49 5.55375 -3 6 C-3.99 5.67 -4.98 5.34 -6 5 C-4.02 3.35 -2.04 1.7 0 0 Z " fill="#E3645B" transform="translate(84,62)"/>
</svg>
